<?xml version="1.0" encoding="utf-8"?>
<!-- Generator: Adobe Illustrator 16.0.0, SVG Export Plug-In . SVG Version: 6.00 Build 0)  -->
<!DOCTYPE svg PUBLIC "-//W3C//DTD SVG 1.1//EN" "http://www.w3.org/Graphics/SVG/1.1/DTD/svg11.dtd">
<svg version="1.1" id="Layer_1" xmlns="http://www.w3.org/2000/svg" xmlns:xlink="http://www.w3.org/1999/xlink" x="0px" y="0px"
	 width="960px" height="165.57px" viewBox="0 197.104 960 165.57" enable-background="new 0 197.104 960 165.57"
	 xml:space="preserve">
<g>
	
		<linearGradient id="SVGID_1_" gradientUnits="userSpaceOnUse" x1="151.9375" y1="557.3926" x2="153.0384" y2="517.7596" gradientTransform="matrix(4.3976 0 0 -4.3976 82.3012 2636.689)">
		<stop  offset="0" style="stop-color:#FEFEFE"/>
		<stop  offset="1" style="stop-color:#D3CEDC"/>
	</linearGradient>
	<path fill="url(#SVGID_1_)" d="M752.433,362.675L752.433,362.675c-10.555,0-18.91-8.795-18.91-18.909l1.759-127.531
		c0-10.114,8.796-18.91,18.91-18.47c10.114,0,18.47,8.795,18.47,18.91l-1.759,127.531
		C771.342,354.319,762.986,362.675,752.433,362.675z"/>
</g>
<g>
	
		<linearGradient id="SVGID_2_" gradientUnits="userSpaceOnUse" x1="124.6738" y1="555.5488" x2="125.9949" y2="515.6961" gradientTransform="matrix(4.3976 0 0 -4.3976 82.3012 2636.689)">
		<stop  offset="0" style="stop-color:#FEFEFE"/>
		<stop  offset="1" style="stop-color:#D3CEDC"/>
	</linearGradient>
	<path fill="url(#SVGID_2_)" d="M634.137,362.675L553.66,226.349c-5.277-8.795-2.199-20.229,6.597-25.506
		c8.795-5.277,20.229-2.199,25.506,6.597l47.055,79.597l43.536-79.157c4.838-9.235,16.271-12.313,25.506-7.476
		c9.235,4.837,12.313,16.271,7.477,25.506L634.137,362.675z"/>
</g>
<linearGradient id="SVGID_3_" gradientUnits="userSpaceOnUse" x1="-25.0933" y1="534.8203" x2="104.3578" y2="536.1413" gradientTransform="matrix(4.3976 0 0 -4.3976 82.3012 2636.689)">
	<stop  offset="7.812516e-04" style="stop-color:#9840FB"/>
	<stop  offset="0.2149" style="stop-color:#A240F5"/>
	<stop  offset="0.5839" style="stop-color:#BE40E4"/>
	<stop  offset="1" style="stop-color:#E540CD"/>
</linearGradient>
<path fill="url(#SVGID_3_)" d="M464.828,280l64.645-63.766c4.398-4.397,4.398-11.434,0-15.831c-4.397-4.398-11.434-4.398-15.831,0
	l-64.645,63.765l-64.646-63.765c-4.397-4.398-11.434-4.398-15.831,0c-4.398,4.397-4.398,11.434,0,15.831L433.165,280l-65.084,63.766
	c-4.397,4.397-4.397,11.434,0,15.831c2.199,2.199,5.277,3.078,7.916,3.078c2.639,0,5.717-0.879,7.916-3.078l64.645-63.765
	l64.646,63.765c2.198,2.199,5.277,3.078,7.916,3.078c2.638,0,5.717-0.879,7.915-3.078c4.397-4.397,4.397-11.434,0-15.831
	L464.828,280z"/>
<g>
	<g>
		
			<linearGradient id="SVGID_4_" gradientUnits="userSpaceOnUse" x1="19.9102" y1="552.5137" x2="81.0126" y2="550.2017" gradientTransform="matrix(4.3976 0 0 -4.3976 82.3012 2636.689)">
			<stop  offset="7.812516e-04" style="stop-color:#9840FB"/>
			<stop  offset="1" style="stop-color:#E540CD"/>
		</linearGradient>
		<path fill="url(#SVGID_4_)" d="M334.659,221.952H193.935c-6.157,0-11.434-4.837-11.434-11.434c0-6.596,4.837-11.434,11.434-11.434
			h140.724c6.157,0,11.434,4.837,11.434,11.434C346.092,217.114,340.815,221.952,334.659,221.952z"/>
	</g>
	<g>
		
			<linearGradient id="SVGID_5_" gradientUnits="userSpaceOnUse" x1="19.3057" y1="536.5371" x2="80.4073" y2="534.2251" gradientTransform="matrix(4.3976 0 0 -4.3976 82.3012 2636.689)">
			<stop  offset="7.812516e-04" style="stop-color:#9840FB"/>
			<stop  offset="1" style="stop-color:#E540CD"/>
		</linearGradient>
		<path fill="url(#SVGID_5_)" d="M334.659,292.313H193.935c-6.157,0-11.434-4.837-11.434-11.435c0-6.596,4.837-11.433,11.434-11.433
			h140.724c6.157,0,11.434,4.837,11.434,11.433C346.092,287.477,340.815,292.313,334.659,292.313z"/>
	</g>
	<g>
		
			<linearGradient id="SVGID_6_" gradientUnits="userSpaceOnUse" x1="18.7017" y1="520.5596" x2="79.8017" y2="518.2477" gradientTransform="matrix(4.3976 0 0 -4.3976 82.3012 2636.689)">
			<stop  offset="7.812516e-04" style="stop-color:#9840FB"/>
			<stop  offset="1" style="stop-color:#E540CD"/>
		</linearGradient>
		<path fill="url(#SVGID_6_)" d="M334.659,362.675H193.935c-6.157,0-11.434-4.837-11.434-11.434s4.837-11.434,11.434-11.434h140.724
			c6.157,0,11.434,4.837,11.434,11.434S340.815,362.675,334.659,362.675z"/>
	</g>
</g>
<g>
	
		<linearGradient id="SVGID_7_" gradientUnits="userSpaceOnUse" x1="-18.7148" y1="535.7012" x2="104.3607" y2="535.7012" gradientTransform="matrix(4.3976 0 0 -4.3976 82.3012 2636.689)">
		<stop  offset="7.812516e-04" style="stop-color:#9840FB"/>
		<stop  offset="1" style="stop-color:#E540CD"/>
	</linearGradient>
	<path fill="url(#SVGID_7_)" d="M119.175,362.675H11.434C4.837,362.675,0,357.398,0,351.241c0-6.156,4.837-11.434,11.434-11.434
		h107.742c11.874,0,21.548-9.675,21.548-21.548c0-11.874-9.675-21.549-21.548-21.549H48.813C21.988,296.711,0,274.723,0,247.897
		c0-26.826,21.988-48.813,48.813-48.813h103.344c6.157,0,11.434,4.837,11.434,11.434c0,6.597-5.277,11.434-11.434,11.434H48.813
		c-14.512,0-25.946,11.874-25.946,25.946s11.874,25.946,25.946,25.946h70.362c24.187,0,44.416,19.79,44.416,44.417
		C163.591,342.886,143.362,362.675,119.175,362.675z"/>
</g>
<linearGradient id="SVGID_8_" gradientUnits="userSpaceOnUse" x1="180.1729" y1="560.1035" x2="181.4939" y2="516.287" gradientTransform="matrix(4.3976 0 0 -4.3976 82.3012 2636.689)">
	<stop  offset="0.1178" style="stop-color:#FEFEFE"/>
	<stop  offset="1" style="stop-color:#D3CEDC"/>
</linearGradient>
<path fill="url(#SVGID_8_)" d="M878.204,197.325h-52.771c-15.392,0-28.145,12.753-28.145,28.145V334.53
	c0,15.392,12.753,28.145,28.145,28.145h52.771c45.296,0,81.796-36.5,81.796-81.796v-1.319
	C960,234.265,923.5,197.325,878.204,197.325z M916.464,284.838l-66.404,38.259c-5.717,3.519-12.753-0.88-12.753-7.476v-71.242
	c0-6.597,7.036-10.994,12.753-7.476l66.404,38.259C919.981,277.361,919.981,282.639,916.464,284.838z"/>
</svg>
